<svg xmlns="http://www.w3.org/2000/svg" xmlns:xlink="http://www.w3.org/1999/xlink" viewBox="0 0 350 220">
    <defs>
        <style>
            .cls-1{fill:#fff;opacity:0}.cls-2{fill:#b3cedc}.cls-3{fill:#80bee5}.cls-4{fill:#5ca8d6}.cls-5{fill:url(#linear-gradient)}.cls-6{fill:url(#linear-gradient-2)}
        </style>
        <linearGradient id="linear-gradient" x2=".999" y1=".502" y2=".502" gradientUnits="objectBoundingBox">
            <stop offset="0" stop-color="#7fc0e1"/>
            <stop offset="1" stop-color="#c0e4ef"/>
        </linearGradient>
        <linearGradient id="linear-gradient-2" x2="1" y1=".5" y2=".5" xlink:href="#linear-gradient"/>
    </defs>
    <g id="icon-paperplane" transform="translate(-776 -293)">
        <path id="Rectangle_3" d="M0 0h350v220H0z" class="cls-1" data-name="Rectangle 3" transform="translate(776 293)"/>
        <g id="img-material-paperplane" transform="translate(798.676 318)">
            <g id="Group_9486" data-name="Group 9486" transform="rotate(-74.99 105.647 15.04)">
                <g id="Group_9485" data-name="Group 9485">
                    <g id="Group_9481" data-name="Group 9481" transform="translate(72.936)">
                        <path id="Path_6414" d="M10.525 9.1c.284 0 .284-.284.568-.568a1.8 1.8 0 0 0-.284-2.557A50.888 50.888 0 0 0 2.853.3 1.852 1.852 0 1 0 .864 3.421a44.662 44.662 0 0 1 7.388 5.4 2.145 2.145 0 0 0 2.273.279z" class="cls-2" data-name="Path 6414"/>
                    </g>
                    <g id="Group_9483" data-name="Group 9483" transform="translate(0 13.823)">
                        <g id="Group_9482" data-name="Group 9482">
                            <path id="Path_6415" d="M54.194 199.865a1.851 1.851 0 0 1 .568-2.557A49.163 49.163 0 0 0 68.4 185.374a1.819 1.819 0 0 1 2.841 2.273 57.025 57.025 0 0 1-14.775 12.786 1.575 1.575 0 0 1-2.272-.568zM75.5 178.838a1.851 1.851 0 0 1-.568-2.557 62.982 62.982 0 0 0 6.819-17.049 1.9 1.9 0 1 1 3.694.852 69.242 69.242 0 0 1-7.1 17.9l-.852.852a1.373 1.373 0 0 1-1.993.002zm9.661-28.414c-1.137 0-1.7-.852-1.7-1.989v-.852a92.65 92.65 0 0 0-.852-17.617 1.6 1.6 0 0 1 1.7-1.989c1.137-.284 1.989.568 2.273 1.7a101.725 101.725 0 0 1 .852 18.469V149a1.888 1.888 0 0 1-1.137 1.421zm-2.557-29.835a1.756 1.756 0 0 1-2.273-1.421 117.143 117.143 0 0 0-5.967-17.617 1.979 1.979 0 0 1 3.694-1.421 125.565 125.565 0 0 1 6.251 18.185 2.356 2.356 0 0 1-.852 2.273c-.565-.288-.849.001-.849.001zM72.095 92.174a1.951 1.951 0 0 1-2.557-.852c-.284-.568-.568-.852-.568-1.421A48.966 48.966 0 0 1 63 91.89a1.9 1.9 0 0 1-.85-3.69c1.7-.568 3.694-1.137 5.4-1.7-1.989-3.694-3.978-7.672-6.535-11.65a1.852 1.852 0 1 1 3.126-1.989c2.557 4.262 4.83 8.24 6.819 12.218a49.017 49.017 0 0 0 7.672-4.262 1.852 1.852 0 1 1 1.989 3.126 76.54 76.54 0 0 1-8.24 4.546c.284.284.284.852.568 1.137a2.292 2.292 0 0 1-.852 2.557zM86.87 76.547a1.593 1.593 0 0 1 0-2.557 66.475 66.475 0 0 0 6.819-8.808 42.771 42.771 0 0 0 3.126-6.251 1.979 1.979 0 1 1 3.694 1.421A38.194 38.194 0 0 1 97.1 67.17a58.162 58.162 0 0 1-7.388 9.661c-.284.284-.284.284-.568.284a3.062 3.062 0 0 1-2.274-.568zM51.352 93.879a62.792 62.792 0 0 1-19.322-1.42 1.9 1.9 0 0 1 .852-3.694 55.073 55.073 0 0 0 18.185 1.421c1.137 0 1.989.568 1.989 1.7a1.558 1.558 0 0 1-1.137 1.7.88.88 0 0 1-.567.293zm49.725-43.474a1.756 1.756 0 0 1-1.421-2.273 55.686 55.686 0 0 0 .284-18.185 1.852 1.852 0 1 1 3.694-.284 62.823 62.823 0 0 1-.284 19.322 1.888 1.888 0 0 1-1.137 1.421zM20.949 88.481c-1.421-.852-3.126-1.7-4.262-2.557a39.943 39.943 0 0 1-10.514-10.23A1.852 1.852 0 1 1 9.3 73.705a32.689 32.689 0 0 0 9.66 9.095 28.4 28.4 0 0 0 3.978 2.273 1.951 1.951 0 0 1 .852 2.557l-.852.852c-.853-.001-1.421.283-1.989-.001zm33.813-23.3c-3.978-6.251-7.672-10.8-11.65-14.207a1.808 1.808 0 0 1 2.557-2.557c4.262 3.694 7.956 8.524 12.218 15.06a1.851 1.851 0 0 1-.568 2.557h-.284a1.9 1.9 0 0 1-2.273-.853zm44.895-44.895a1.933 1.933 0 0 1-2.273-1.137c-.852-2.557-1.989-5.115-3.126-7.672a53.8 53.8 0 0 0-5.4-8.524A1.8 1.8 0 0 1 89.143.4 1.8 1.8 0 0 1 91.7.68a97.947 97.947 0 0 1 5.683 9.093 41.947 41.947 0 0 1 3.41 8.24 1.7 1.7 0 0 1-1.137 2.273zM3.048 66.317A1.756 1.756 0 0 1 .775 64.9 20.99 20.99 0 0 1 2.2 49.837a16.554 16.554 0 0 1 3.126-4.262 1.593 1.593 0 0 1 2.557 0 1.593 1.593 0 0 1 0 2.557 16.11 16.11 0 0 0-2.273 3.694C3.616 55.52 3.332 59.5 4.468 64.044a1.733 1.733 0 0 1-.852 1.989.992.992 0 0 0-.568.284zM34.3 44.722a25.937 25.937 0 0 0-17.333-1.7 1.9 1.9 0 1 1-.852-3.694 29.12 29.12 0 0 1 19.606 1.989 1.871 1.871 0 0 1 .852 2.557l-.852.852a1.268 1.268 0 0 1-1.421-.004z" class="cls-2" data-name="Path 6415"/>
                        </g>
                    </g>
                    <g id="Group_9484" data-name="Group 9484" transform="translate(34.304 215.32)">
                        <path id="Path_6416" d="M11.934 3.766a1.79 1.79 0 0 0 .852-2.273A1.866 1.866 0 0 0 10.513.072 31.684 31.684 0 0 1 1.7 1.493c-1.132 0-1.7.853-1.7 1.989s.852 1.7 1.989 1.7a57.424 57.424 0 0 0 9.661-1.7c0 .284 0 .284.284.284z" class="cls-2" data-name="Path 6416"/>
                    </g>
                </g>
            </g>
            <path id="Path_6410" d="M92.347 13.024L103.712 34.9l-23.583-5.111L0 4.5z" class="cls-3" data-name="Path 6410" transform="translate(0 8.286)"/>
            <path id="Path_6411" d="M62.464 19.988L22.4 17.715l9.945-5.115z" class="cls-4" data-name="Path 6411" transform="translate(41.248 23.202)"/>
            <path id="Path_6412" d="M92.347 21.311L99.45 0 0 12.786z" class="cls-5" data-name="Path 6412"/>
            <path id="Path_6413" d="M0 4.5l80.129 25.289-11.935 30.687z" class="cls-6" data-name="Path 6413" transform="translate(0 8.286)"/>
        </g>
    </g>
</svg>
